<?xml version="1.0" standalone="no"?>
<!DOCTYPE svg PUBLIC "-//W3C//DTD SVG 20010904//EN"
 "http://www.w3.org/TR/2001/REC-SVG-20010904/DTD/svg10.dtd">
<svg version="1.0" xmlns="http://www.w3.org/2000/svg"
 width="500.000000pt" height="500.000000pt" viewBox="0 0 500.000000 500.000000"
 preserveAspectRatio="xMidYMid meet">

<g transform="translate(0.000000,500.000000) scale(0.100000,-0.100000)"
fill="#000000" stroke="none">
<path d="M0 2500 l0 -2500 2500 0 2500 0 0 2500 0 2500 -2500 0 -2500 0 0
-2500z m2727 1273 c10 -16 31 -50 45 -78 29 -55 237 -452 473 -900 84 -159
165 -315 180 -345 l27 -56 -97 -148 c-80 -123 -99 -146 -110 -135 -7 8 -82
147 -167 309 -86 162 -282 534 -437 827 -154 293 -281 534 -281 537 0 3 71 7
158 9 86 1 165 4 174 5 9 1 25 -10 35 -25z m-1427 -838 l0 -855 -135 0 -135 0
0 855 0 855 135 0 135 0 0 -855z m2710 0 l0 -855 -135 0 -135 0 0 855 0 855
135 0 135 0 0 -855z m-2230 795 c60 -31 122 -91 156 -152 26 -48 29 -62 29
-143 0 -74 -4 -98 -23 -138 -32 -65 -102 -134 -165 -162 -52 -24 -137 -43
-137 -31 0 4 9 33 19 64 51 152 44 432 -15 585 -7 20 81 5 136 -23z m-12 -875
c129 -31 248 -118 298 -221 109 -223 -75 -516 -339 -541 -37 -3 -67 -3 -67 1
0 4 11 29 25 56 14 27 37 88 51 137 50 165 32 371 -46 524 -30 59 -30 59 -7
59 12 0 50 -7 85 -15z m880 -480 c54 -99 111 -204 126 -232 l26 -53 -236 0
-236 0 46 45 c77 78 137 224 152 372 4 35 10 60 14 56 4 -4 53 -89 108 -188z
m-1588 -810 l0 -85 33 20 c38 24 59 25 96 5 35 -18 61 -79 61 -143 0 -55 -30
-126 -58 -141 -33 -18 -87 -13 -116 10 l-26 20 0 -21 c0 -15 -5 -20 -17 -18
-16 3 -18 23 -21 221 l-2 217 25 0 c25 0 25 -1 25 -85z m1350 -45 c0 -71 3
-130 8 -130 4 0 25 27 47 60 33 49 45 60 69 60 21 0 26 -3 19 -12 -5 -7 -26
-34 -47 -60 l-38 -47 51 -85 c28 -46 51 -87 51 -90 0 -3 -11 -6 -25 -6 -19 0
-31 13 -60 65 -20 36 -41 67 -45 70 -15 10 -30 -32 -30 -84 0 -44 -3 -51 -20
-51 -19 0 -20 7 -20 220 0 213 1 220 20 220 19 0 20 -7 20 -130z m-782 84 c4
-29 -23 -51 -43 -34 -18 15 -19 32 -3 48 18 18 42 10 46 -14z m-148 -107 c0
-16 -9 -26 -29 -34 -38 -14 -51 -59 -51 -170 0 -76 -2 -83 -20 -83 -19 0 -20
7 -20 150 0 143 1 150 20 150 13 0 20 -7 20 -20 0 -18 2 -17 25 5 31 32 55 32
55 2z m451 -6 c29 -29 29 -30 29 -155 0 -119 -1 -126 -20 -126 -19 0 -20 7
-20 108 0 123 -11 152 -60 152 -49 0 -60 -29 -60 -152 l0 -108 -25 0 -25 0 0
150 c0 143 1 150 20 150 14 0 20 -7 20 -21 0 -20 1 -20 31 5 40 34 74 33 110
-3z m313 23 c9 -3 16 -15 16 -25 0 -16 -8 -19 -48 -19 -55 0 -77 -16 -92 -71
-14 -47 -3 -93 28 -125 23 -22 33 -25 70 -21 39 4 43 3 40 -17 -3 -18 -11 -21
-55 -24 -88 -5 -133 45 -133 148 0 108 89 187 174 154z m591 -19 l25 -24 26
24 c62 58 128 12 139 -97 4 -35 5 -90 3 -123 -3 -53 -5 -60 -25 -63 -23 -3
-23 -2 -23 105 0 120 -12 153 -55 153 -43 0 -55 -33 -55 -153 0 -107 0 -108
-22 -105 -22 3 -23 8 -28 118 -3 63 -9 121 -13 128 -13 19 -52 14 -73 -9 -16
-17 -20 -40 -22 -130 -3 -99 -5 -109 -23 -109 -18 0 -19 9 -19 150 0 143 1
150 20 150 12 0 20 -7 20 -16 0 -13 5 -12 26 5 35 28 69 26 99 -4z m456 -4
c28 -29 29 -32 29 -133 0 -57 3 -113 6 -125 5 -18 2 -23 -14 -23 -11 0 -23 7
-26 16 -6 16 -8 16 -24 0 -19 -16 -78 -22 -98 -8 -6 4 -16 17 -23 29 -34 66
11 141 92 150 54 6 62 28 26 64 -21 21 -45 22 -91 4 -28 -11 -23 30 5 43 42
20 86 14 118 -17z m321 18 c35 -19 48 -70 48 -189 0 -103 -1 -110 -20 -110
-19 0 -20 7 -21 93 0 121 -14 161 -55 165 -52 5 -63 -18 -66 -143 -3 -105 -4
-110 -25 -113 -23 -3 -23 -3 -23 147 0 144 1 151 20 151 14 0 20 -7 20 -22 0
-19 2 -20 13 -6 28 35 72 47 109 27z m340 0 c35 -19 48 -70 48 -189 l0 -110
-25 0 -25 0 0 114 c0 124 -8 146 -54 146 -47 0 -61 -32 -64 -151 -3 -99 -5
-109 -23 -109 -18 0 -19 9 -19 150 0 143 1 150 20 150 12 0 20 -7 20 -16 0
-13 5 -12 26 5 29 23 65 27 96 10z m-2330 -149 c-3 -141 -4 -150 -23 -150 -18
0 -19 8 -19 150 0 149 0 150 23 150 22 0 22 0 19 -150z"/>
<path d="M1089 1451 c-26 -26 -29 -37 -29 -89 0 -72 25 -112 70 -112 43 0 70
40 70 106 0 64 -14 98 -47 113 -32 15 -30 15 -64 -18z"/>
<path d="M3239 1363 c-39 -6 -61 -35 -57 -75 3 -29 7 -33 35 -36 23 -2 35 3
47 20 16 22 23 99 9 97 -5 -1 -20 -4 -34 -6z"/>
</g>
</svg>
